<?xml version="1.0" standalone="no"?>
<!DOCTYPE svg PUBLIC "-//W3C//DTD SVG 20010904//EN"
 "http://www.w3.org/TR/2001/REC-SVG-20010904/DTD/svg10.dtd">
<svg version="1.0" xmlns="http://www.w3.org/2000/svg"
 width="626.000000pt" height="590.000000pt" viewBox="0 0 626.000000 590.000000"
 preserveAspectRatio="xMidYMid meet">
<metadata>
Created by potrace 1.16, written by Peter Selinger 2001-2019
</metadata>
<g transform="translate(0.000000,590.000000) scale(0.100000,-0.100000)"
fill="#000000" stroke="none">
<path d="M970 5890 c-17 -11 -32 -4 134 -55 259 -79 431 -167 876 -444 l155
-96 -193 -9 c-106 -4 -192 -12 -190 -16 2 -4 66 -55 143 -113 77 -57 194 -151
260 -208 125 -107 462 -440 552 -545 l52 -61 -137 39 c-453 128 -611 160 -872
178 -635 44 -1167 -137 -1535 -521 -84 -88 -215 -264 -215 -288 0 -18 31 -13
110 20 103 42 237 75 377 94 147 20 217 43 295 96 43 29 141 71 336 145 152
57 277 102 278 101 1 -1 -27 -36 -62 -77 -35 -41 -87 -108 -115 -147 l-50 -73
106 0 c101 0 692 14 990 24 l140 4 -102 -19 c-129 -24 -273 -70 -381 -121
-281 -134 -543 -401 -701 -717 -56 -110 -147 -348 -138 -357 3 -3 34 14 69 38
35 25 119 77 188 116 69 39 135 80 146 91 12 11 68 83 125 160 57 77 105 139
107 137 3 -4 -50 -193 -64 -231 -4 -10 0 -15 14 -15 39 0 99 29 177 85 44 31
145 89 225 127 80 38 165 79 189 91 27 13 57 39 75 66 137 196 152 215 202
243 l52 29 -34 -133 c-18 -73 -34 -139 -34 -145 0 -9 10 -11 31 -6 l31 6 -30
-59 c-180 -357 -351 -949 -388 -1341 -4 -40 -8 -73 -10 -73 -2 0 -14 5 -27 11
-17 8 -38 7 -81 -5 -68 -17 -84 -13 -92 23 -3 14 -7 37 -10 49 -7 36 13 52 65
52 57 0 91 21 91 58 0 46 -14 55 -82 60 -42 3 -67 9 -75 20 -9 11 -13 61 -13
164 0 169 0 168 88 168 55 0 82 20 82 62 0 43 -23 52 -140 56 -158 6 -150 19
-150 -260 0 -230 12 -412 31 -485 24 -91 106 -123 225 -88 32 9 64 21 69 25 7
6 10 -100 10 -313 0 -392 21 -573 106 -912 50 -196 169 -544 201 -582 8 -10
126 -13 600 -13 558 0 590 1 584 18 -4 9 -129 248 -278 531 -298 566 -342 656
-394 805 -61 176 -66 211 -64 511 1 149 5 322 9 385 l6 115 8 -190 c12 -285
27 -349 93 -380 44 -21 107 -18 184 8 l65 22 0 45 0 45 -43 3 c-24 2 -63 -1
-87 -6 -24 -5 -49 -6 -56 -1 -16 10 -29 105 -15 119 5 5 31 10 56 10 58 0 90
22 90 60 0 40 -32 60 -95 60 -28 0 -56 5 -63 12 -8 8 -12 59 -12 165 0 174 -1
173 88 173 55 0 82 20 82 62 0 45 -22 53 -148 53 l-114 0 6 56 c11 106 89 474
116 544 l10 26 32 -18 c18 -10 167 -150 330 -310 164 -161 304 -293 311 -293
11 0 13 16 11 73 -2 39 -5 118 -7 174 l-4 101 68 -61 c46 -41 80 -82 104 -126
19 -36 49 -90 66 -118 l31 -53 -46 0 c-36 0 -48 -4 -57 -22 -16 -31 -7 -754
10 -786 20 -37 77 -30 149 19 100 66 158 163 187 309 l12 65 33 -67 c17 -38
33 -68 35 -68 4 0 198 308 218 347 10 18 17 37 17 43 0 6 -33 10 -88 10 -90 0
-112 8 -112 41 0 29 27 47 82 54 142 17 138 16 138 40 0 34 -83 235 -151 364
-118 225 -275 435 -480 643 l-136 137 192 -99 c223 -116 254 -128 349 -137 40
-3 234 -50 450 -109 209 -57 382 -102 384 -99 8 8 -80 152 -168 275 -127 177
-125 170 -24 115 120 -64 209 -127 334 -236 129 -112 297 -239 410 -309 85
-53 476 -260 492 -260 14 0 9 15 -32 105 -261 567 -754 958 -1383 1094 -326
71 -741 78 -1121 21 -71 -11 -131 -19 -133 -17 -1 2 82 42 187 88 104 46 189
86 189 89 0 3 -54 45 -120 94 -66 49 -118 90 -117 91 5 5 170 -22 218 -35 25
-6 88 -30 139 -52 112 -47 67 -49 546 16 187 25 348 46 358 46 43 0 3 34 -183
150 -109 69 -197 126 -195 128 6 6 156 -26 252 -54 135 -39 284 -101 401 -168
l107 -61 160 -3 c180 -4 368 6 363 19 -6 17 -197 164 -328 251 -152 102 -425
240 -576 292 -628 215 -1231 46 -1679 -472 -38 -45 -70 -80 -72 -78 -1 1 -16
54 -32 118 -120 476 -404 820 -870 1057 -291 147 -557 220 -982 270 -186 22
-354 27 -379 11z m1710 -3279 c5 -11 10 -75 10 -143 1 -68 7 -231 14 -363 15
-257 12 -287 -30 -293 -29 -4 -43 17 -54 84 -13 79 -45 100 -114 74 -24 -9
-26 -14 -26 -73 0 -96 -47 -142 -85 -83 -14 20 -17 80 -22 389 -6 359 -6 364
15 385 25 25 58 19 68 -12 4 -11 10 -127 13 -256 l6 -235 30 -5 c17 -3 44 -3
60 0 l30 6 2 258 c1 179 6 262 14 272 17 20 57 17 69 -5z m1421 -192 c71 -101
64 -301 -16 -405 -14 -19 -30 -34 -34 -34 -9 0 -21 441 -13 472 6 23 33 9 63
-33z"/>
<path d="M1379 2619 c-22 -22 -22 -23 -15 -370 10 -457 13 -478 73 -479 33 0
52 26 59 80 4 28 12 50 19 50 6 0 29 -13 51 -30 66 -50 134 -37 134 26 0 10
-27 43 -60 73 l-60 56 39 59 c100 150 92 353 -18 478 -64 73 -177 102 -222 57z
m147 -163 c25 -40 47 -136 39 -181 -8 -51 -43 -125 -59 -125 -10 0 -15 40 -19
150 -3 83 -4 157 -1 165 9 22 21 18 40 -9z"/>
<path d="M3361 2616 c-8 -9 -13 -132 -18 -393 l-6 -380 21 -21 c27 -27 56 -28
82 -2 17 17 20 34 21 123 1 56 4 115 8 131 5 25 9 18 35 -60 54 -167 99 -234
159 -234 40 0 72 30 88 81 6 22 8 124 4 289 -8 297 -19 435 -36 456 -19 23
-71 14 -86 -16 -14 -28 -16 -198 -4 -395 11 -191 3 -182 -59 67 -42 163 -88
304 -115 345 -18 26 -75 32 -94 9z"/>
<path d="M908 2604 c-14 -14 -15 -56 -11 -393 6 -410 7 -421 61 -421 75 1 192
97 245 201 69 138 74 323 11 455 -27 58 -107 138 -159 160 -47 19 -126 18
-147 -2z m213 -261 c16 -57 17 -162 1 -218 -14 -49 -73 -149 -87 -147 -11 2
-20 456 -9 482 9 24 79 -61 95 -117z"/>
<path d="M4570 2249 c-85 -127 -143 -239 -155 -296 -6 -30 -5 -33 19 -33 14 0
65 17 115 37 77 31 92 34 106 23 9 -8 15 -24 13 -39 -3 -22 -19 -34 -111 -80
l-107 -54 64 -121 c109 -203 123 -228 130 -218 3 5 15 65 27 133 30 178 37
475 15 629 -10 63 -21 120 -25 128 -6 11 -32 -20 -91 -109z"/>
</g>
</svg>
